<svg version="1.1" xmlns="http://www.w3.org/2000/svg" viewBox="0 0 728 160" width="728" height="160"><!-- svg-source:excalidraw --><metadata></metadata><defs><style class="style-fonts">
      </style></defs><g transform="translate(41 104) rotate(0 17 -24)" stroke="none"><path fill="#1e1e1e" d="M -1.41,0.70 Q -1.41,0.70 -2.61,0.58 -3.81,0.46 -3.95,0.05 -4.10,-0.35 -4.15,-0.78 -4.19,-1.22 -4.13,-1.65 -4.07,-2.08 -3.90,-2.49 -3.74,-2.89 -3.49,-3.24 -3.23,-3.60 -2.90,-3.88 -2.57,-4.16 -2.18,-4.36 -1.79,-4.55 -1.36,-4.65 -0.94,-4.75 -0.50,-4.74 -0.06,-4.73 0.35,-4.62 0.77,-4.50 1.15,-4.29 1.54,-4.08 1.86,-3.79 2.18,-3.49 2.42,-3.13 2.66,-2.76 3.74,-2.23 4.82,-1.70 7.74,1.30 10.66,4.31 13.62,7.91 16.58,11.51 18.56,14.84 20.53,18.17 19.28,21.94 18.04,25.70 14.28,26.31 10.52,26.91 6.63,27.06 2.75,27.21 0.27,27.84 -2.20,28.48 -2.62,28.45 -3.03,28.42 -3.42,28.28 -3.81,28.15 -4.16,27.93 -4.51,27.71 -4.80,27.41 -5.09,27.11 -5.30,26.75 -5.50,26.40 -5.62,26.00 -5.73,25.60 -5.75,25.19 -5.77,24.77 -5.69,24.37 -5.60,23.96 -5.42,23.59 -5.25,23.21 -4.99,22.89 -4.72,22.57 -4.39,22.32 -4.06,22.07 -3.68,21.91 -3.30,21.75 -2.89,21.68 -2.48,21.61 0.41,26.40 3.31,31.19 6.55,33.80 9.79,36.42 15.07,38.05 20.35,39.68 26.83,39.28 33.31,38.89 39.60,36.84 45.88,34.80 50.41,31.53 54.94,28.25 56.08,22.09 57.22,15.93 54.80,9.14 52.37,2.34 46.35,-6.82 40.33,-15.99 30.45,-27.10 20.57,-38.21 7.15,-51.58 -6.26,-64.94 -14.03,-72.63 -21.79,-80.33 -24.87,-82.67 -27.95,-85.02 -28.20,-85.34 -28.46,-85.66 -28.63,-86.03 -28.79,-86.41 -28.87,-86.81 -28.94,-87.21 -28.92,-87.62 -28.90,-88.03 -28.78,-88.42 -28.65,-88.81 -28.44,-89.16 -28.23,-89.52 -27.94,-89.81 -27.65,-90.10 -27.30,-90.31 -26.95,-90.52 -26.56,-90.65 -26.17,-90.77 -25.76,-90.79 -25.35,-90.82 -24.95,-90.75 -24.55,-90.68 -24.17,-90.51 -23.80,-90.34 -23.48,-90.09 -23.15,-89.84 -20.53,-83.37 -17.90,-76.90 -15.02,-71.13 -12.14,-65.37 -2.89,-51.27 6.35,-37.17 15.43,-24.54 24.50,-11.92 32.25,-2.88 39.99,6.16 45.13,10.74 50.26,15.32 52.74,17.39 55.21,19.46 57.42,20.65 59.62,21.84 59.79,21.97 59.95,22.10 60.07,22.28 60.19,22.45 60.25,22.66 60.30,22.86 60.29,23.07 60.28,23.29 60.20,23.48 60.12,23.68 59.98,23.84 59.84,24.00 59.66,24.11 59.47,24.22 59.26,24.26 59.06,24.31 58.85,24.28 58.63,24.26 58.44,24.17 58.25,24.08 58.10,23.93 57.94,23.78 57.85,23.59 57.75,23.41 57.71,23.20 57.68,22.99 57.72,22.78 57.75,22.57 57.85,22.38 57.96,22.19 58.11,22.05 58.27,21.90 58.46,21.81 58.65,21.73 58.86,21.71 59.08,21.68 59.28,21.73 59.49,21.78 59.67,21.89 59.85,22.00 59.99,22.16 60.13,22.33 60.20,22.52 60.28,22.72 60.29,22.93 60.30,23.15 60.24,23.35 60.18,23.56 60.06,23.73 59.94,23.91 59.77,24.03 59.60,24.16 59.40,24.23 59.20,24.29 58.99,24.29 58.77,24.29 58.57,24.22 58.37,24.15 58.37,24.15 58.37,24.15 56.17,22.96 53.97,21.78 50.48,20.63 46.99,19.49 40.81,15.16 34.63,10.83 26.57,1.61 18.51,-7.61 9.33,-20.37 0.15,-33.14 -9.19,-47.67 -18.53,-62.20 -21.52,-68.33 -24.51,-74.45 -26.23,-79.73 -27.95,-85.02 -28.20,-85.34 -28.46,-85.66 -28.62,-86.03 -28.79,-86.41 -28.87,-86.81 -28.94,-87.21 -28.92,-87.62 -28.90,-88.03 -28.78,-88.42 -28.66,-88.81 -28.44,-89.16 -28.23,-89.52 -27.94,-89.81 -27.65,-90.10 -27.30,-90.31 -26.95,-90.52 -26.56,-90.65 -26.17,-90.77 -25.76,-90.79 -25.35,-90.82 -24.95,-90.75 -24.55,-90.68 -24.17,-90.51 -23.80,-90.34 -23.48,-90.09 -23.15,-89.84 -20.22,-87.35 -17.28,-84.87 -9.55,-77.14 -1.81,-69.42 11.76,-55.97 25.35,-42.52 35.71,-31.13 46.07,-19.75 52.50,-9.80 58.93,0.14 61.45,8.55 63.97,16.96 61.86,24.95 59.76,32.93 53.95,37.23 48.14,41.53 40.91,43.77 33.69,46.01 25.97,46.23 18.25,46.46 11.76,44.13 5.28,41.80 1.13,37.79 -3.01,33.79 -2.61,31.14 -2.20,28.48 -2.62,28.45 -3.03,28.42 -3.42,28.28 -3.81,28.15 -4.16,27.93 -4.51,27.71 -4.80,27.41 -5.09,27.11 -5.30,26.76 -5.50,26.40 -5.62,26.00 -5.73,25.60 -5.75,25.19 -5.77,24.77 -5.69,24.37 -5.60,23.96 -5.43,23.59 -5.25,23.21 -4.99,22.89 -4.72,22.57 -4.39,22.32 -4.06,22.07 -3.68,21.91 -3.30,21.75 -2.89,21.68 -2.48,21.61 -0.02,20.97 2.43,20.33 6.12,20.17 9.80,20.01 13.02,19.89 16.25,19.76 15.20,20.47 14.16,21.18 12.54,18.67 10.92,16.15 8.15,12.77 5.37,9.38 2.90,6.78 0.43,4.17 -1.69,2.32 -3.81,0.46 -3.95,0.05 -4.10,-0.35 -4.15,-0.78 -4.19,-1.22 -4.13,-1.65 -4.07,-2.08 -3.90,-2.49 -3.74,-2.89 -3.49,-3.24 -3.23,-3.60 -2.90,-3.88 -2.57,-4.16 -2.18,-4.36 -1.79,-4.55 -1.36,-4.65 -0.94,-4.75 -0.50,-4.74 -0.06,-4.73 0.35,-4.62 0.77,-4.50 1.15,-4.29 1.53,-4.08 1.86,-3.79 2.18,-3.49 2.42,-3.13 2.66,-2.76 2.03,-1.73 1.41,-0.70 1.48,-0.52 1.54,-0.34 1.56,-0.15 1.58,0.03 1.55,0.22 1.52,0.40 1.45,0.58 1.38,0.76 1.27,0.91 1.16,1.07 1.01,1.19 0.87,1.32 0.70,1.40 0.53,1.49 0.34,1.53 0.15,1.57 -0.03,1.57 -0.22,1.56 -0.40,1.51 -0.59,1.46 -0.75,1.37 -0.92,1.28 -1.06,1.15 -1.20,1.02 -1.31,0.86 -1.41,0.70 -1.41,0.70 L -1.41,0.70 Z"></path></g><g transform="translate(125 112) rotate(0 28.5 10.5)" stroke="none"><path fill="#1e1e1e" d="M -2.15,1.07 Q -2.15,1.07 -3.61,-1.06 -5.07,-3.20 -5.80,-4.39 -6.53,-5.58 -8.06,-4.84 -9.60,-4.11 -10.76,-1.23 -11.92,1.65 -12.86,5.05 -13.79,8.44 -13.89,11.59 -13.99,14.73 -13.05,16.95 -12.11,19.17 -9.81,18.99 -7.50,18.82 -5.97,17.27 -4.45,15.73 -3.43,13.89 -2.42,12.05 -2.08,10.64 -1.73,9.22 -1.94,8.81 -2.16,8.41 -2.00,8.03 -1.85,7.65 -1.61,7.32 -1.36,6.99 -1.05,6.73 -0.74,6.47 -0.37,6.29 -0.01,6.10 0.38,6.02 0.78,5.93 1.19,5.94 1.60,5.95 1.99,6.06 2.39,6.17 2.74,6.37 3.10,6.57 3.40,6.85 3.70,7.13 3.92,7.47 4.14,7.81 4.28,8.20 4.41,8.58 4.45,8.99 4.49,9.39 4.43,9.80 4.37,10.20 4.35,11.72 4.33,13.23 5.25,14.23 6.16,15.23 7.59,16.14 9.02,17.06 10.78,17.83 12.55,18.60 13.72,18.61 14.90,18.63 15.64,17.51 16.38,16.40 16.06,14.93 15.74,13.46 14.74,10.81 13.74,8.15 12.72,6.23 11.70,4.31 10.88,2.86 10.06,1.41 9.90,1.48 9.74,1.56 9.61,1.15 9.48,0.74 9.46,0.31 9.43,-0.11 9.51,-0.54 9.58,-0.96 9.76,-1.35 9.93,-1.75 10.20,-2.09 10.46,-2.42 10.80,-2.69 11.14,-2.96 11.53,-3.14 11.92,-3.31 12.34,-3.39 12.77,-3.47 13.20,-3.45 13.63,-3.42 14.04,-3.30 14.45,-3.17 14.82,-2.95 15.19,-2.73 15.49,-2.42 15.80,-2.12 16.02,-1.75 16.25,-1.38 17.05,-0.19 17.86,0.99 19.11,3.02 20.37,5.06 21.81,7.73 23.25,10.40 25.20,13.37 27.15,16.34 29.64,19.56 32.13,22.77 31.91,24.10 31.69,25.44 30.47,22.92 29.24,20.41 28.44,16.46 27.64,12.51 27.28,9.24 26.93,5.97 26.81,4.08 26.69,2.19 26.69,1.76 26.69,1.33 26.80,0.92 26.91,0.50 27.11,0.12 27.31,-0.24 27.60,-0.56 27.88,-0.88 28.24,-1.12 28.59,-1.36 28.99,-1.51 29.40,-1.65 29.82,-1.70 30.25,-1.75 30.67,-1.69 31.09,-1.64 31.49,-1.48 31.89,-1.33 32.24,-1.08 32.59,-0.83 32.87,-0.51 33.15,-0.19 33.35,0.18 33.54,0.56 33.64,0.98 33.74,1.39 36.15,3.92 38.57,6.45 40.52,8.72 42.46,10.98 43.65,11.67 44.83,12.37 45.65,10.73 46.48,9.08 47.99,6.32 49.51,3.56 52.09,2.36 54.68,1.17 58.00,1.80 61.31,2.42 65.15,4.00 69.00,5.57 71.05,7.09 73.11,8.61 74.77,9.18 76.42,9.75 76.61,9.85 76.80,9.95 76.94,10.11 77.09,10.27 77.17,10.46 77.26,10.65 77.28,10.86 77.31,11.07 77.26,11.28 77.21,11.49 77.10,11.67 76.99,11.85 76.83,11.99 76.66,12.12 76.47,12.20 76.27,12.28 76.06,12.29 75.84,12.30 75.64,12.24 75.44,12.18 75.26,12.06 75.09,11.94 74.96,11.77 74.83,11.60 74.76,11.40 74.70,11.20 74.70,10.99 74.70,10.77 74.77,10.57 74.84,10.37 74.97,10.20 75.10,10.04 75.27,9.92 75.45,9.80 75.66,9.74 75.86,9.69 76.07,9.70 76.29,9.71 76.48,9.79 76.68,9.87 76.84,10.01 77.00,10.15 77.11,10.33 77.22,10.52 77.26,10.72 77.31,10.93 77.28,11.14 77.26,11.35 77.17,11.55 77.08,11.74 76.93,11.89 76.78,12.05 76.59,12.14 76.41,12.24 76.20,12.28 75.99,12.31 75.78,12.27 75.57,12.24 75.57,12.24 75.57,12.24 73.91,11.67 72.25,11.10 69.83,11.08 67.40,11.05 63.40,10.35 59.40,9.65 56.92,8.79 54.44,7.93 53.22,10.23 52.00,12.53 50.11,14.95 48.23,17.37 45.66,17.95 43.09,18.53 40.17,17.14 37.25,15.74 34.95,13.08 32.65,10.43 31.36,8.37 30.06,6.32 28.37,4.25 26.69,2.19 26.69,1.76 26.69,1.33 26.80,0.92 26.91,0.50 27.11,0.12 27.31,-0.24 27.60,-0.56 27.88,-0.88 28.24,-1.12 28.59,-1.36 28.99,-1.51 29.40,-1.65 29.82,-1.70 30.25,-1.75 30.67,-1.69 31.09,-1.64 31.49,-1.48 31.89,-1.33 32.24,-1.08 32.59,-0.84 32.87,-0.51 33.15,-0.19 33.35,0.18 33.54,0.56 33.64,0.98 33.74,1.39 33.91,3.28 34.09,5.17 34.43,8.09 34.77,11.02 35.60,14.86 36.43,18.71 37.05,21.55 37.67,24.40 37.18,26.84 36.70,29.29 35.03,30.40 33.35,31.51 29.78,29.43 26.22,27.36 23.54,23.90 20.85,20.44 18.75,17.18 16.65,13.93 15.32,11.42 13.99,8.91 12.78,6.86 11.58,4.82 10.66,3.19 9.74,1.56 9.61,1.15 9.48,0.74 9.46,0.31 9.43,-0.11 9.51,-0.53 9.58,-0.96 9.76,-1.35 9.93,-1.75 10.20,-2.08 10.46,-2.42 10.80,-2.69 11.14,-2.96 11.53,-3.14 11.92,-3.31 12.34,-3.39 12.77,-3.47 13.20,-3.45 13.63,-3.42 14.04,-3.30 14.45,-3.17 14.82,-2.95 15.19,-2.73 15.49,-2.42 15.80,-2.12 16.02,-1.75 16.25,-1.38 16.09,-1.19 15.94,-1.00 16.47,0.52 17.00,2.06 17.82,4.45 18.63,6.84 19.24,10.27 19.85,13.70 19.26,15.74 18.67,17.77 17.43,19.49 16.18,21.20 14.03,22.46 11.89,23.72 8.54,23.36 5.20,23.00 2.72,21.25 0.24,19.50 -1.27,16.94 -2.78,14.39 -2.47,11.40 -2.16,8.41 -2.00,8.03 -1.85,7.65 -1.61,7.32 -1.36,6.99 -1.05,6.73 -0.74,6.47 -0.37,6.29 -0.01,6.10 0.38,6.02 0.78,5.93 1.19,5.94 1.60,5.95 1.99,6.06 2.39,6.17 2.74,6.37 3.10,6.57 3.40,6.85 3.70,7.12 3.92,7.47 4.14,7.81 4.28,8.19 4.41,8.58 4.45,8.99 4.49,9.39 4.43,9.80 4.37,10.20 4.30,10.21 4.23,10.22 3.56,12.50 2.90,14.77 1.52,17.56 0.15,20.34 -2.57,22.91 -5.30,25.47 -9.29,26.17 -13.28,26.86 -16.16,24.45 -19.05,22.03 -20.25,18.30 -21.46,14.57 -21.20,10.49 -20.93,6.40 -19.65,2.25 -18.37,-1.88 -15.67,-5.92 -12.98,-9.96 -10.09,-10.84 -7.20,-11.71 -4.76,-10.77 -2.32,-9.82 -0.92,-7.90 0.47,-5.99 1.31,-3.53 2.15,-1.07 2.25,-0.80 2.35,-0.53 2.37,-0.24 2.40,0.04 2.36,0.33 2.32,0.62 2.21,0.89 2.11,1.16 1.94,1.39 1.77,1.63 1.55,1.82 1.32,2.00 1.06,2.13 0.80,2.26 0.52,2.33 0.24,2.39 -0.04,2.39 -0.33,2.38 -0.61,2.31 -0.89,2.23 -1.15,2.09 -1.40,1.95 -1.62,1.75 -1.83,1.56 -1.99,1.31 -2.15,1.07 -2.15,1.07 L -2.15,1.07 Z"></path></g><g transform="translate(226 35) rotate(0 71.5 44)" stroke="none"><path fill="#1e1e1e" d="M 1.01,-2.03 Q 1.01,-2.03 3.08,-1.79 5.14,-1.55 8.36,1.39 11.59,4.33 15.83,9.65 20.08,14.98 27.92,26.15 35.76,37.32 43.03,46.86 50.31,56.40 56.42,62.90 62.54,69.40 66.10,71.57 69.65,73.73 70.77,73.54 71.88,73.35 71.55,68.37 71.22,63.38 70.17,57.87 69.12,52.35 68.09,48.23 67.05,44.11 66.30,42.32 65.55,40.53 65.49,40.09 65.44,39.66 65.49,39.22 65.54,38.78 65.70,38.37 65.85,37.96 66.10,37.60 66.35,37.24 66.68,36.95 67.00,36.65 67.39,36.45 67.78,36.24 68.21,36.14 68.63,36.03 69.07,36.03 69.51,36.03 69.94,36.13 70.36,36.24 70.75,36.44 71.14,36.64 71.47,36.93 71.80,37.22 72.05,37.58 72.30,37.94 72.46,38.35 72.62,38.76 73.22,42.14 73.83,45.52 76.22,50.47 78.61,55.41 83.00,61.75 87.39,68.09 92.77,73.15 98.16,78.22 103.91,80.40 109.66,82.58 115.05,81.64 120.45,80.70 125.99,74.79 131.52,68.87 133.55,62.05 135.58,55.23 134.29,47.70 133.01,40.17 127.05,31.58 121.08,22.99 116.75,19.20 112.41,15.40 110.33,15.49 108.25,15.59 106.09,17.25 103.94,18.91 103.77,19.04 103.60,19.16 103.40,19.23 103.19,19.29 102.98,19.29 102.77,19.29 102.57,19.22 102.37,19.15 102.20,19.02 102.03,18.89 101.91,18.71 101.80,18.53 101.74,18.33 101.69,18.12 101.70,17.91 101.72,17.70 101.80,17.50 101.88,17.31 102.02,17.15 102.16,16.98 102.34,16.88 102.52,16.77 102.73,16.73 102.94,16.68 103.15,16.71 103.36,16.73 103.55,16.82 103.74,16.92 103.90,17.06 104.05,17.21 104.15,17.40 104.24,17.59 104.28,17.80 104.31,18.01 104.27,18.22 104.23,18.43 104.13,18.61 104.03,18.80 103.88,18.95 103.72,19.09 103.53,19.18 103.33,19.26 103.12,19.28 102.91,19.31 102.70,19.26 102.50,19.21 102.31,19.10 102.13,18.99 102.00,18.82 101.86,18.66 101.79,18.46 101.71,18.26 101.70,18.05 101.69,17.84 101.75,17.63 101.81,17.43 101.93,17.26 102.05,17.08 102.05,17.08 102.05,17.08 104.48,14.01 106.90,10.95 111.01,10.05 115.12,9.16 121.30,13.86 127.48,18.57 134.08,28.63 140.68,38.70 141.89,47.99 143.11,57.29 140.20,65.70 137.28,74.12 129.85,81.06 122.41,87.99 114.87,88.88 107.32,89.77 100.21,86.79 93.10,83.81 87.16,78.08 81.22,72.35 76.55,65.47 71.89,58.58 69.21,52.70 66.54,46.82 66.04,43.68 65.55,40.53 65.49,40.09 65.44,39.66 65.49,39.22 65.54,38.78 65.70,38.37 65.85,37.96 66.10,37.60 66.35,37.24 66.68,36.95 67.00,36.65 67.39,36.45 67.78,36.24 68.21,36.14 68.63,36.03 69.07,36.03 69.51,36.03 69.94,36.13 70.36,36.24 70.75,36.44 71.14,36.64 71.47,36.93 71.80,37.22 72.05,37.58 72.30,37.94 72.46,38.35 72.62,38.76 73.33,40.56 74.05,42.35 75.12,46.67 76.19,50.99 77.39,57.21 78.58,63.44 78.13,69.84 77.68,76.24 73.09,78.48 68.50,80.73 62.70,77.80 56.90,74.87 50.47,68.03 44.04,61.18 36.67,51.51 29.30,41.83 21.63,30.80 13.96,19.76 10.13,14.77 6.29,9.77 4.02,7.39 1.75,5.00 0.36,3.51 -1.01,2.03 -1.24,1.88 -1.47,1.73 -1.66,1.52 -1.84,1.32 -1.97,1.08 -2.11,0.84 -2.18,0.58 -2.25,0.31 -2.25,0.04 -2.26,-0.22 -2.20,-0.49 -2.14,-0.76 -2.01,-1.00 -1.89,-1.25 -1.71,-1.46 -1.54,-1.67 -1.31,-1.83 -1.09,-1.99 -0.84,-2.09 -0.58,-2.19 -0.31,-2.23 -0.04,-2.27 0.22,-2.24 0.50,-2.21 0.75,-2.12 1.01,-2.03 1.01,-2.03 L 1.01,-2.03 Z"></path></g><g transform="translate(380 112) rotate(0 14.5 -11)" stroke="none"><path fill="#1e1e1e" d="M 1.23,-1.40 Q 1.23,-1.40 4.13,-0.11 7.03,1.18 8.31,1.69 9.60,2.20 10.87,1.28 12.14,0.36 12.29,-1.55 12.43,-3.48 11.61,-7.76 10.79,-12.03 9.13,-15.72 7.47,-19.42 5.70,-21.19 3.93,-22.97 5.03,-23.92 6.14,-24.87 5.49,-22.62 4.84,-20.37 5.16,-17.75 5.49,-15.13 6.67,-11.27 7.84,-7.41 9.77,-4.12 11.71,-0.83 13.95,0.21 16.18,1.27 19.49,1.26 22.79,1.25 25.73,0.49 28.66,-0.27 28.88,-0.29 29.09,-0.31 29.29,-0.26 29.50,-0.21 29.68,-0.09 29.86,0.01 30.00,0.17 30.13,0.34 30.21,0.54 30.28,0.73 30.29,0.95 30.30,1.16 30.24,1.36 30.18,1.57 30.06,1.74 29.93,1.91 29.76,2.04 29.59,2.17 29.39,2.23 29.19,2.29 28.97,2.29 28.76,2.29 28.56,2.22 28.36,2.14 28.19,2.01 28.03,1.88 27.91,1.70 27.79,1.53 27.74,1.32 27.69,1.12 27.70,0.90 27.72,0.69 27.80,0.50 27.88,0.30 28.02,0.14 28.16,-0.01 28.35,-0.12 28.53,-0.22 28.74,-0.27 28.95,-0.31 29.16,-0.28 29.37,-0.25 29.56,-0.16 29.75,-0.07 29.90,0.07 30.05,0.22 30.15,0.41 30.25,0.60 30.28,0.81 30.31,1.02 30.27,1.23 30.23,1.44 30.13,1.62 30.03,1.81 29.87,1.95 29.71,2.09 29.52,2.18 29.33,2.27 29.33,2.27 29.33,2.27 26.39,3.03 23.46,3.79 18.82,5.85 14.18,7.90 9.91,5.70 5.64,3.49 3.08,-0.88 0.52,-5.26 -0.74,-9.97 -2.02,-14.69 -2.05,-18.72 -2.08,-22.76 -0.87,-25.33 0.32,-27.90 4.46,-28.03 8.60,-28.15 11.25,-25.28 13.90,-22.42 15.87,-17.89 17.85,-13.36 18.83,-7.75 19.80,-2.15 18.76,1.57 17.72,5.29 15.34,7.13 12.95,8.96 9.95,9.11 6.95,9.26 4.56,8.06 2.16,6.86 0.46,4.13 -1.23,1.40 -1.38,1.24 -1.53,1.07 -1.64,0.87 -1.74,0.67 -1.80,0.45 -1.85,0.23 -1.85,0.01 -1.86,-0.21 -1.80,-0.43 -1.75,-0.65 -1.65,-0.85 -1.54,-1.05 -1.39,-1.22 -1.25,-1.39 -1.06,-1.52 -0.88,-1.65 -0.66,-1.73 -0.45,-1.81 -0.23,-1.84 -0.01,-1.87 0.21,-1.84 0.43,-1.82 0.64,-1.74 0.86,-1.66 1.04,-1.53 1.23,-1.40 1.23,-1.40 L 1.23,-1.40 Z"></path></g><g transform="translate(418 93) rotate(0 143 1)" stroke="none"><path fill="#1e1e1e" d="M 0,-2.67 Q 0,-2.67 1.02,-3.09 2.04,-3.51 1.09,-1.79 0.14,-0.06 -0.94,-1.67 -2.03,-3.27 -3.67,-4.06 -5.31,-4.86 -6.50,-3.00 -7.70,-1.14 -8.35,1.56 -9.01,4.27 -9.32,7.89 -9.64,11.52 -9.51,15.52 -9.37,19.53 -8.48,22.26 -7.60,24.99 -7.30,23.92 -7.00,22.85 -5.70,20.32 -4.41,17.80 -2.91,14.13 -1.40,10.45 -0.18,6.85 1.03,3.24 2.91,1.19 4.78,-0.84 7.06,-1.04 9.33,-1.24 11.81,0.88 14.29,3.01 15.97,5.36 17.65,7.71 18.90,9.27 20.16,10.83 21.54,9.73 22.92,8.63 24.23,5.93 25.54,3.24 27.34,-1.41 29.13,-6.06 30.54,-9.38 31.94,-12.70 32.70,-13.46 33.46,-14.22 33.68,-14.59 33.89,-14.96 34.19,-15.26 34.48,-15.57 34.84,-15.80 35.20,-16.02 35.60,-16.16 36.01,-16.29 36.43,-16.33 36.86,-16.36 37.28,-16.29 37.70,-16.22 38.09,-16.06 38.48,-15.89 38.82,-15.63 39.16,-15.38 39.43,-15.05 39.70,-14.72 39.88,-14.33 40.06,-13.95 40.15,-13.53 40.23,-13.12 40.21,-12.69 40.20,-12.27 40.08,-11.86 39.96,-11.45 40.75,-10.38 41.55,-9.31 41.62,-5.26 41.70,-1.22 41.12,2.59 40.55,6.40 40.00,8.93 39.45,11.45 39.81,12.48 40.18,13.50 40.04,13.94 39.89,14.37 39.65,14.75 39.41,15.14 39.08,15.45 38.75,15.77 38.36,16.00 37.97,16.22 37.53,16.35 37.09,16.48 36.64,16.50 36.19,16.52 35.74,16.43 35.29,16.34 34.88,16.15 34.47,15.95 34.12,15.66 33.77,15.38 33.49,15.01 33.22,14.65 33.04,14.23 32.86,13.82 32.78,13.37 32.71,12.92 32.75,12.47 32.78,12.01 35.94,9.63 39.10,7.26 41.71,5.07 44.32,2.87 47.26,0.21 50.21,-2.45 52.05,-4.50 53.88,-6.54 54.22,-6.79 54.57,-7.04 54.96,-7.20 55.35,-7.36 55.77,-7.42 56.19,-7.48 56.61,-7.44 57.03,-7.40 57.43,-7.26 57.83,-7.12 58.18,-6.89 58.53,-6.66 58.82,-6.35 59.11,-6.04 59.32,-5.68 59.53,-5.31 59.64,-4.90 59.75,-4.49 59.76,-4.07 59.77,-3.65 59.68,-3.23 59.59,-2.82 59.40,-2.44 59.22,-2.06 58.95,-1.74 58.67,-1.41 57.16,1.53 55.65,4.48 55.20,7.05 54.74,9.61 57.91,11.46 61.07,13.31 77.82,12.22 94.57,11.12 118.50,6.51 142.43,1.90 171.07,-4.59 199.71,-11.08 228.58,-16.35 257.45,-21.62 278.58,-26.45 299.70,-31.28 299.91,-31.29 300.13,-31.30 300.33,-31.25 300.54,-31.19 300.71,-31.07 300.89,-30.96 301.02,-30.79 301.15,-30.62 301.22,-30.42 301.29,-30.22 301.29,-30.01 301.29,-29.79 301.23,-29.59 301.16,-29.39 301.03,-29.22 300.91,-29.05 300.73,-28.93 300.56,-28.81 300.35,-28.75 300.15,-28.69 299.94,-28.70 299.72,-28.71 299.52,-28.79 299.33,-28.86 299.16,-29.00 299.00,-29.14 298.89,-29.32 298.78,-29.50 298.73,-29.71 298.68,-29.91 298.71,-30.13 298.73,-30.34 298.81,-30.53 298.90,-30.72 299.05,-30.88 299.19,-31.03 299.38,-31.14 299.57,-31.24 299.78,-31.27 299.98,-31.31 300.19,-31.28 300.40,-31.24 300.59,-31.14 300.78,-31.05 300.93,-30.89 301.08,-30.74 301.17,-30.55 301.26,-30.36 301.28,-30.15 301.31,-29.93 301.26,-29.73 301.22,-29.52 301.11,-29.34 301.00,-29.15 300.84,-29.01 300.68,-28.87 300.48,-28.79 300.29,-28.71 300.29,-28.71 300.29,-28.71 279.16,-23.89 258.04,-19.06 229.74,-11.26 201.45,-3.47 172.70,3.18 143.95,9.83 119.45,14.52 94.94,19.20 76.18,19.68 57.42,20.16 52.81,16.24 48.20,12.32 48.38,6.73 48.56,1.15 51.22,-2.69 53.88,-6.54 54.22,-6.79 54.57,-7.04 54.96,-7.20 55.35,-7.36 55.77,-7.42 56.19,-7.48 56.61,-7.44 57.03,-7.40 57.43,-7.26 57.83,-7.13 58.18,-6.89 58.53,-6.66 58.82,-6.35 59.11,-6.05 59.32,-5.68 59.53,-5.31 59.64,-4.90 59.75,-4.49 59.76,-4.07 59.77,-3.65 59.68,-3.23 59.59,-2.82 59.40,-2.44 59.22,-2.06 58.95,-1.74 58.67,-1.41 56.84,0.62 55.00,2.66 52.00,5.54 49.01,8.43 45.75,11.18 42.50,13.93 41.34,13.72 40.18,13.50 40.04,13.93 39.89,14.37 39.65,14.75 39.41,15.14 39.08,15.45 38.75,15.77 38.36,16.00 37.97,16.22 37.53,16.35 37.09,16.48 36.64,16.50 36.19,16.52 35.74,16.43 35.29,16.34 34.88,16.15 34.47,15.95 34.12,15.66 33.77,15.38 33.49,15.02 33.22,14.65 33.04,14.23 32.86,13.82 32.79,13.37 32.71,12.92 32.75,12.47 32.78,12.01 32.45,11.36 32.12,10.71 32.64,7.95 33.15,5.18 33.73,1.96 34.31,-1.25 34.41,-4.30 34.50,-7.34 33.98,-10.78 33.46,-14.22 33.68,-14.59 33.89,-14.96 34.19,-15.26 34.48,-15.57 34.84,-15.80 35.20,-16.02 35.60,-16.16 36.01,-16.29 36.43,-16.33 36.86,-16.36 37.28,-16.29 37.70,-16.22 38.09,-16.06 38.48,-15.89 38.82,-15.63 39.16,-15.38 39.43,-15.05 39.70,-14.72 39.88,-14.33 40.06,-13.95 40.15,-13.53 40.23,-13.12 40.21,-12.69 40.20,-12.27 40.08,-11.86 39.96,-11.45 38.98,-10.64 38.01,-9.83 36.68,-6.75 35.35,-3.66 33.42,1.32 31.50,6.32 29.46,10.09 27.41,13.87 24.55,15.68 21.69,17.48 18.52,16.68 15.35,15.88 13.57,13.86 11.79,11.85 10.39,9.84 8.99,7.84 8.18,6.69 7.36,5.55 6.14,9.24 4.93,12.94 3.41,16.98 1.89,21.03 0.13,24.47 -1.63,27.92 -3.76,29.68 -5.90,31.44 -9.92,29.98 -13.94,28.53 -15.46,24.19 -16.97,19.84 -17.07,15.31 -17.17,10.77 -16.69,6.48 -16.22,2.20 -15.00,-1.53 -13.78,-5.26 -11.41,-7.97 -9.04,-10.68 -6.42,-11.20 -3.80,-11.73 -1.38,-10.88 1.03,-10.03 2.61,-8.48 4.19,-6.93 5.07,-5.38 5.95,-3.82 6.18,-2.45 6.41,-1.08 4.48,1.21 2.55,3.51 1.27,3.09 0,2.67 -0.32,2.63 -0.64,2.59 -0.94,2.48 -1.24,2.37 -1.50,2.18 -1.77,2.00 -1.98,1.76 -2.20,1.52 -2.35,1.23 -2.50,0.94 -2.58,0.63 -2.65,0.32 -2.65,-0.00 -2.65,-0.32 -2.58,-0.63 -2.50,-0.94 -2.35,-1.23 -2.20,-1.52 -1.98,-1.76 -1.77,-2.00 -1.50,-2.18 -1.24,-2.37 -0.94,-2.48 -0.64,-2.59 -0.32,-2.63 0.00,-2.67 0.00,-2.67 L 0,-2.67 Z"></path></g></svg>